<?xml version="1.0" encoding="UTF-8" standalone="no"?>
<!-- Created with Inkscape (http://www.inkscape.org/) -->

<svg
   xmlns:dc="http://purl.org/dc/elements/1.1/"
   xmlns:cc="http://creativecommons.org/ns#"
   xmlns:rdf="http://www.w3.org/1999/02/22-rdf-syntax-ns#"
   xmlns:svg="http://www.w3.org/2000/svg"
   xmlns="http://www.w3.org/2000/svg"
   xmlns:sodipodi="http://sodipodi.sourceforge.net/DTD/sodipodi-0.dtd"
   xmlns:inkscape="http://www.inkscape.org/namespaces/inkscape"
   id="svg3004"
   version="1.1"
   inkscape:version="0.48.4 r9939"
   width="180.27344"
   height="180.23438"
   xml:space="preserve"
   sodipodi:docname="TIU-logo2-Final 05-28-2015.pdf"><metadata
     id="metadata3010"><rdf:RDF><cc:Work
         rdf:about=""><dc:format>image/svg+xml</dc:format><dc:type
           rdf:resource="http://purl.org/dc/dcmitype/StillImage" /><dc:title></dc:title></cc:Work></rdf:RDF></metadata><defs
     id="defs3008"><clipPath
       clipPathUnits="userSpaceOnUse"
       id="clipPath3014"><path
         d="m 242.085,288.955 144.209,0 0,144.208 -144.209,0 0,-144.208 z"
         id="path3016"
         inkscape:connector-curvature="0" /></clipPath><clipPath
       clipPathUnits="userSpaceOnUse"
       id="clipPath3022"><path
         d="M 0,792 612,792 612,0 0,0 0,792 z"
         id="path3024"
         inkscape:connector-curvature="0" /></clipPath></defs><sodipodi:namedview
     pagecolor="#ffffff"
     bordercolor="#666666"
     borderopacity="1"
     objecttolerance="10"
     gridtolerance="10"
     guidetolerance="10"
     inkscape:pageopacity="0"
     inkscape:pageshadow="2"
     inkscape:window-width="1871"
     inkscape:window-height="1056"
     id="namedview3006"
     showgrid="false"
     fit-margin-top="0"
     fit-margin-left="0"
     fit-margin-right="0"
     fit-margin-bottom="0"
     inkscape:zoom="0.91818182"
     inkscape:cx="79.906063"
     inkscape:cy="133.79394"
     inkscape:window-x="49"
     inkscape:window-y="24"
     inkscape:window-maximized="1"
     inkscape:current-layer="g3012" /><g
     id="g3012"
     inkscape:groupmode="layer"
     inkscape:label="TIU-logo2-Final 05-28-2015"
     transform="matrix(1.25,0,0,-1.25,-302.59394,541.44044)"
     clip-path="url(#clipPath3014)"><g
       id="g3018"><g
         id="g3020"
         clip-path="url(#clipPath3022)"><g
           id="g3026"
           transform="translate(385.7939,361.0586)"><path
             d="m 0,0 c 0,-39.545 -32.059,-71.603 -71.605,-71.603 -39.547,0 -71.604,32.058 -71.604,71.603 0,39.545 32.057,71.604 71.604,71.604 C -32.059,71.604 0,39.545 0,0 z"
             style="fill:none;stroke:#294297;stroke-width:1;stroke-linecap:butt;stroke-linejoin:miter;stroke-miterlimit:10;stroke-opacity:1;stroke-dasharray:none"
             id="path3028"
             inkscape:connector-curvature="0" /></g><g
           id="g3030"
           transform="translate(382.8643,361.0586)"><path
             d="m 0,0 c 0,-37.928 -30.748,-68.674 -68.676,-68.674 -37.927,0 -68.674,30.746 -68.674,68.674 0,37.928 30.747,68.674 68.674,68.674 C -30.748,68.674 0,37.928 0,0"
             style="fill:#294297;fill-opacity:1;fill-rule:nonzero;stroke:none"
             id="path3032"
             inkscape:connector-curvature="0" /></g><g
           id="g3034"
           transform="translate(367.6758,361.0586)"><path
             d="m 0,0 c 0,-29.539 -23.948,-53.486 -53.488,-53.486 -29.538,0 -53.485,23.947 -53.485,53.486 0,29.539 23.947,53.487 53.485,53.487 C -23.948,53.487 0,29.539 0,0"
             style="fill:#ffffff;fill-opacity:1;fill-rule:nonzero;stroke:none"
             id="path3036"
             inkscape:connector-curvature="0" /></g><g
           id="g3038"
           transform="translate(279.4009,314.1074)"><path
             d="M 0,0 C 0.929,1.273 1.035,1.474 0.378,2.047 L 0.016,2.365 C -0.022,2.467 0.162,2.668 0.261,2.651 0.934,2.123 1.337,1.811 1.822,1.457 2.309,1.104 2.741,0.807 3.535,0.266 3.582,0.176 3.456,-0.048 3.313,-0.038 L 2.851,0.243 C 2.115,0.687 1.923,0.549 0.994,-0.725 l -3.95,-5.421 C -3.229,-6.521 -3.238,-6.534 -2.874,-6.8 l 0.667,-0.485 c 0.52,-0.38 1.206,-0.842 1.712,-0.783 0.486,0.053 0.802,0.232 1.156,0.438 0.151,0.002 0.276,-0.182 0.254,-0.314 -0.593,-0.405 -1.34,-1.049 -1.778,-1.472 -0.055,0.003 -0.22,0.105 -0.231,0.168 0.211,0.441 -0.199,0.721 -0.757,1.127 l -4.913,3.579 c -0.653,0.478 -0.78,0.532 -1.192,0.351 -0.078,0.018 -0.203,0.129 -0.191,0.195 0.495,0.399 1.295,1.32 1.525,1.71 0.119,0.062 0.324,-0.088 0.333,-0.205 -0.186,-0.329 -0.427,-0.841 -0.343,-1.107 0.129,-0.409 0.52,-0.841 1.187,-1.328 l 0.861,-0.627 c 0.363,-0.265 0.36,-0.245 0.651,0.156 L 0,0 z"
             style="fill:#ffffff;fill-opacity:1;fill-rule:nonzero;stroke:none"
             id="path3040"
             inkscape:connector-curvature="0" /></g><g
           id="g3042"
           transform="translate(271.7847,320.834)"><path
             d="M 0,0 C 1.152,1.118 1.261,1.349 0.741,1.973 L 0.376,2.413 C 0.378,2.54 0.571,2.686 0.666,2.652 1.293,1.964 1.636,1.587 2.054,1.156 2.491,0.704 2.879,0.327 3.453,-0.224 3.484,-0.319 3.332,-0.507 3.204,-0.506 L 2.849,-0.203 C 2.18,0.358 2.008,0.234 0.855,-0.883 l -0.55,-0.532 c -0.592,-0.574 -0.701,-0.741 -1,-1.639 l -1.246,-3.672 c -0.356,-1.054 -0.253,-1.268 0.005,-1.643 l 0.239,-0.354 c -0.013,-0.138 -0.174,-0.273 -0.29,-0.24 -0.313,0.365 -0.678,0.764 -1.179,1.28 -0.48,0.496 -0.867,0.873 -1.148,1.121 -0.063,0.129 0.111,0.296 0.237,0.294 l 0.157,-0.119 c 0.419,-0.325 0.546,-0.348 0.633,-0.264 0.108,0.104 0.449,0.979 0.506,1.137 0.41,1.171 0.875,2.394 1.211,3.535 -0.894,-0.22 -1.863,-0.47 -2.802,-0.751 -0.853,-0.242 -1.97,-0.553 -2.099,-0.679 -0.065,-0.063 0.047,-0.329 0.266,-0.619 l 0.165,-0.214 c -0.001,-0.15 -0.162,-0.284 -0.289,-0.24 -0.355,0.408 -0.647,0.731 -0.971,1.065 -0.322,0.334 -0.625,0.625 -1.003,0.971 -0.028,0.137 0.112,0.295 0.249,0.282 l 0.347,-0.249 c 0.64,-0.467 1.631,-0.132 3.078,0.226 l 1.833,0.46 c 1.277,0.319 1.405,0.381 2.235,1.185 L 0,0 z"
             style="fill:#ffffff;fill-opacity:1;fill-rule:nonzero;stroke:none"
             id="path3044"
             inkscape:connector-curvature="0" /></g><g
           id="g3046"
           transform="translate(263.0454,331.9463)"><path
             d="M 0,0 C 0.374,0.25 1.859,1.238 2.159,1.492 2.251,1.517 2.363,1.483 2.455,1.347 2.343,1.055 2.146,0.402 1.633,-1.507 L 0.266,-6.598 c -0.164,-0.594 -0.623,-2.125 -0.722,-2.57 l 0.017,-0.024 c 0.181,0.049 0.477,0.228 0.852,0.477 l 2.721,1.812 c 0.588,0.39 2.203,1.483 2.436,1.944 0.088,0.167 -0.005,0.467 -0.187,0.795 L 5.164,-3.752 C 5.213,-3.61 5.372,-3.522 5.49,-3.568 5.84,-4.147 6.119,-4.593 6.426,-5.055 6.775,-5.579 7.013,-5.908 7.329,-6.328 7.324,-6.458 7.158,-6.586 7.033,-6.562 L 6.771,-6.249 C 6.543,-5.986 6.335,-5.837 6.156,-5.866 5.59,-5.99 4.075,-7.017 3.476,-7.415 l -3.61,-2.401 c -0.348,-0.234 -0.602,-0.42 -0.716,-0.873 -0.057,-0.291 0.054,-0.65 0.217,-0.974 l 0.115,-0.23 c -0.025,-0.124 -0.211,-0.249 -0.329,-0.182 -0.311,0.55 -0.751,1.211 -0.901,1.436 -0.133,0.2 -0.288,0.404 -0.419,0.549 0.471,0.674 1.139,3.244 1.325,3.963 l 0.556,2.117 c 0.387,1.502 0.68,2.579 0.889,3.565 L 0.585,-0.42 C 0.491,-0.412 0.29,-0.545 0.028,-0.72 l -2.672,-1.777 c -0.586,-0.392 -2.202,-1.483 -2.418,-1.97 -0.063,-0.15 -0.004,-0.4 0.264,-0.94 l 0.118,-0.23 c -0.018,-0.137 -0.226,-0.258 -0.333,-0.181 -0.357,0.59 -0.627,1.023 -0.942,1.498 -0.358,0.537 -0.587,0.853 -0.891,1.26 -0.004,0.141 0.171,0.258 0.296,0.233 l 0.141,-0.158 c 0.329,-0.359 0.594,-0.541 0.728,-0.525 0.59,0.086 2.121,1.142 2.696,1.524 L 0,0 z"
             style="fill:#ffffff;fill-opacity:1;fill-rule:nonzero;stroke:none"
             id="path3048"
             inkscape:connector-curvature="0" /></g><g
           id="g3050"
           transform="translate(260.562,336.915)"><path
             d="M 0,0 C 0.738,0.293 1.168,0.512 1.408,0.882 1.719,1.36 1.647,1.945 1.3,2.823 0.226,5.527 -2.026,6.037 -4.619,5.008 -6.152,4.398 -8.451,2.63 -7.001,-1.021 c 0.326,-0.824 0.615,-1.225 0.742,-1.303 0.128,-0.079 0.488,0.032 1.114,0.281 L 0,0 z m -4.522,-3.12 c -0.977,-0.387 -1.242,-0.572 -1.093,-1.192 l 0.08,-0.323 c -0.025,-0.139 -0.242,-0.241 -0.354,-0.125 -0.54,1.157 -1.03,2.27 -1.5,3.455 -0.465,1.171 -0.775,2.195 -0.799,3.233 -0.066,2.153 1.147,3.732 2.987,4.463 1.77,0.703 3.627,0.456 5.124,-0.79 C 0.77,4.889 1.405,3.817 1.832,2.744 2.186,1.853 2.428,0.916 2.621,0.428 2.854,-0.158 3.067,-0.653 3.355,-1.298 3.347,-1.398 3.135,-1.515 3.019,-1.464 L 2.849,-1.16 C 2.416,-0.396 2.238,-0.435 0.774,-1.017 L -4.522,-3.12 z"
             style="fill:#ffffff;fill-opacity:1;fill-rule:nonzero;stroke:none"
             id="path3052"
             inkscape:connector-curvature="0" /></g><g
           id="g3054"
           transform="translate(254.5601,348.2129)"><path
             d="m 0,0 c 0.36,-0.054 0.374,-0.036 0.295,0.377 l -0.343,1.812 c -0.081,0.428 -0.145,0.448 -0.518,0.24 L -2.818,1.178 C -3.15,0.992 -3.523,0.784 -3.685,0.662 l 0.006,-0.029 c 0.083,-0.03 0.464,-0.111 0.938,-0.19 L 0,0 z M 0.76,3.168 C 0.454,3.003 0.422,2.936 0.506,2.493 l 0.42,-2.225 c 0.07,-0.37 0.132,-0.45 0.461,-0.494 l 1.646,-0.223 c 0.705,-0.096 1.123,-0.124 1.284,-0.093 0.177,0.033 0.251,0.124 0.214,0.483 L 4.483,0.437 C 4.537,0.554 4.773,0.598 4.857,0.477 4.9,0.088 4.987,-0.369 5.104,-1.065 5.196,-1.551 5.326,-2.077 5.416,-2.472 5.373,-2.571 5.143,-2.646 5.054,-2.571 L 4.916,-2.093 C 4.82,-1.745 4.597,-1.451 4.027,-1.345 3.298,-1.208 2.262,-0.977 0.493,-0.67 l -4.265,0.751 c -0.57,0.106 -0.867,0.141 -1.094,0.052 -0.171,0.334 -0.484,0.535 -0.706,0.661 -0.016,0.088 -0.006,0.197 0.091,0.246 0.612,0.314 1.246,0.679 1.854,1.023 L 1.916,5.204 C 3.104,5.872 3.288,6.105 3.242,6.753 L 3.211,7.159 C 3.266,7.276 3.506,7.292 3.58,7.229 3.664,6.619 3.748,6.101 3.873,5.437 4.007,4.729 4.143,4.175 4.238,3.75 4.201,3.621 3.969,3.562 3.875,3.65 L 3.75,4.07 C 3.661,4.374 3.534,4.563 3.387,4.536 3.226,4.505 2.974,4.381 2.643,4.195 L 0.76,3.168 z"
             style="fill:#ffffff;fill-opacity:1;fill-rule:nonzero;stroke:none"
             id="path3056"
             inkscape:connector-curvature="0" /></g><g
           id="g3058"
           transform="translate(250.4575,357.1562)"><path
             d="m 0,0 c -1.575,-0.039 -1.813,-0.076 -1.865,-1.022 l -0.02,-0.375 c -0.057,-0.092 -0.328,-0.069 -0.374,0.019 0.008,0.841 0.011,1.351 -0.006,1.951 -0.014,0.585 -0.043,1.094 -0.092,1.843 0.043,0.092 0.312,0.129 0.374,0.04 l 0.04,-0.359 C -1.847,1.214 -1.605,1.19 -0.031,1.229 L 5.187,1.362 C 6.132,1.387 6.521,1.441 6.799,1.719 6.96,1.888 7.132,2.178 7.102,3.362 7.069,4.637 7.002,4.95 6.861,5.187 6.673,5.481 6.123,5.858 5.351,6.139 5.273,6.227 5.326,6.513 5.431,6.516 5.597,6.52 7.137,6.139 7.546,5.939 7.536,5.174 7.558,3.749 7.598,2.204 L 7.633,0.825 C 7.647,0.194 7.674,-0.284 7.727,-1.124 7.684,-1.214 7.444,-1.251 7.352,-1.163 L 7.296,-0.714 C 7.184,0.152 6.974,0.178 5.397,0.138 L 0,0 z"
             style="fill:#ffffff;fill-opacity:1;fill-rule:nonzero;stroke:none"
             id="path3060"
             inkscape:connector-curvature="0" /></g><g
           id="g3062"
           transform="translate(250.6011,366.8652)"><path
             d="m 0,0 c -1.548,0.202 -1.774,0.203 -1.993,-0.662 l -0.062,-0.234 c -0.07,-0.082 -0.336,-0.016 -0.367,0.079 0.112,0.635 0.194,1.139 0.275,1.749 l 0.366,2.797 c 0.124,0.952 0.239,1.829 0.218,2.013 0.265,0.057 1.347,0.005 2.009,-0.021 C 0.528,5.649 0.526,5.408 0.428,5.345 -0.301,5.214 -0.838,5.147 -1.133,4.399 -1.249,4.098 -1.326,3.623 -1.412,2.969 L -1.553,1.897 C -1.61,1.451 -1.581,1.448 -1.016,1.374 L 1.959,0.983 C 2.375,0.93 2.382,0.974 2.439,1.42 L 2.553,2.283 C 2.635,2.907 2.666,3.373 2.629,3.559 2.593,3.745 2.518,3.861 2.156,3.983 l -0.594,0.2 C 1.481,4.27 1.515,4.522 1.625,4.568 1.982,4.521 2.555,4.386 3.12,4.312 3.655,4.241 4.229,4.227 4.557,4.184 4.652,4.11 4.62,3.857 4.521,3.796 L 3.924,3.737 C 3.648,3.713 3.41,3.638 3.298,3.351 3.212,3.149 3.149,2.795 3.073,2.215 L 2.961,1.352 C 2.902,0.906 2.91,0.859 3.299,0.809 L 5.395,0.533 C 6.184,0.431 6.694,0.409 6.979,0.613 7.18,0.769 7.385,1.06 7.558,2.368 7.707,3.514 7.704,3.953 7.583,4.302 7.47,4.589 7.001,5.059 6.278,5.547 6.218,5.66 6.29,5.863 6.432,5.905 6.938,5.733 8.035,5.211 8.411,4.965 8.205,3.63 8.018,2.309 7.845,0.984 L 7.669,-0.354 C 7.585,-0.993 7.534,-1.502 7.448,-2.383 7.393,-2.467 7.15,-2.465 7.073,-2.364 l 0.02,0.497 C 7.129,-1.01 6.916,-0.906 5.354,-0.701 L 0,0 z"
             style="fill:#ffffff;fill-opacity:1;fill-rule:nonzero;stroke:none"
             id="path3064"
             inkscape:connector-curvature="0" /></g><g
           id="g3066"
           transform="translate(253.687,381.2588)"><path
             d="m 0,0 c -1.505,0.516 -1.755,0.57 -2.112,-0.243 l -0.151,-0.345 c -0.086,-0.066 -0.332,0.05 -0.347,0.151 0.27,0.699 0.451,1.177 0.655,1.773 0.193,0.568 0.345,1.055 0.562,1.773 0.073,0.071 0.336,0.012 0.365,-0.092 L -1.121,2.652 C -1.338,1.791 -1.105,1.679 0.398,1.164 l 5.053,-1.73 c 1.504,-0.516 1.712,-0.555 2.099,0.248 l 0.164,0.34 C 7.8,0.088 8.045,-0.028 8.059,-0.128 7.787,-0.828 7.608,-1.306 7.413,-1.873 7.209,-2.469 7.059,-2.957 6.844,-3.676 6.772,-3.746 6.535,-3.697 6.479,-3.583 l 0.08,0.37 C 6.745,-2.342 6.556,-2.245 5.053,-1.73 L 0,0 z"
             style="fill:#ffffff;fill-opacity:1;fill-rule:nonzero;stroke:none"
             id="path3068"
             inkscape:connector-curvature="0" /></g><g
           id="g3070"
           transform="translate(264.1763,392.1201)"><path
             d="m 0,0 c 0.398,-0.209 1.978,-1.041 2.344,-1.183 0.065,-0.068 0.09,-0.183 0.013,-0.329 -0.31,-0.041 -0.976,-0.18 -2.899,-0.643 L -5.667,-3.389 C -6.268,-3.53 -7.83,-3.859 -8.269,-3.984 l -0.015,-0.028 c 0.133,-0.136 0.43,-0.31 0.829,-0.519 l 2.893,-1.525 c 0.624,-0.328 2.356,-1.223 2.873,-1.207 0.187,0.002 0.407,0.226 0.608,0.543 l 0.257,0.391 c 0.148,0.023 0.3,-0.073 0.317,-0.201 -0.34,-0.584 -0.598,-1.04 -0.857,-1.532 -0.293,-0.557 -0.469,-0.922 -0.688,-1.401 -0.115,-0.058 -0.307,0.026 -0.345,0.148 l 0.148,0.379 c 0.122,0.327 0.153,0.581 0.042,0.724 -0.378,0.438 -2.005,1.277 -2.642,1.612 l -3.836,2.02 c -0.371,0.196 -0.657,0.33 -1.108,0.212 -0.284,-0.088 -0.545,-0.358 -0.753,-0.655 l -0.144,-0.211 c -0.123,-0.038 -0.322,0.066 -0.323,0.201 0.335,0.537 0.705,1.24 0.83,1.479 0.114,0.212 0.218,0.445 0.287,0.631 0.815,-0.092 3.392,0.552 4.114,0.731 l 2.125,0.525 c 1.504,0.378 2.589,0.637 3.554,0.925 l 0.014,0.026 c -0.038,0.089 -0.251,0.2 -0.529,0.347 l -2.84,1.496 C -4.081,1.455 -5.814,2.351 -6.345,2.309 -6.506,2.291 -6.698,2.121 -7.044,1.626 L -7.188,1.413 c -0.129,-0.05 -0.334,0.074 -0.322,0.202 0.349,0.597 0.598,1.041 0.864,1.546 0.301,0.571 0.469,0.922 0.684,1.387 C -5.84,4.62 -5.653,4.521 -5.616,4.4 L -5.687,4.2 C -5.845,3.741 -5.879,3.419 -5.8,3.31 -5.441,2.833 -3.781,1.992 -3.171,1.671 L 0,0 z"
             style="fill:#ffffff;fill-opacity:1;fill-rule:nonzero;stroke:none"
             id="path3072"
             inkscape:connector-curvature="0" /></g><g
           id="g3074"
           transform="translate(269.146,398.291)"><path
             d="m 0,0 c 1.226,-0.992 1.419,-1.109 2.024,-0.481 l 0.338,0.345 C 2.465,-0.104 2.655,-0.297 2.635,-0.395 2.072,-1.042 1.74,-1.428 1.362,-1.894 0.985,-2.36 0.667,-2.778 0.085,-3.543 -0.006,-3.585 -0.223,-3.448 -0.206,-3.308 L 0.1,-2.859 c 0.478,0.712 0.35,0.911 -0.873,1.902 l -5.21,4.22 C -6.346,3.555 -6.357,3.565 -6.64,3.215 L -7.16,2.574 c -0.404,-0.501 -0.901,-1.161 -0.869,-1.67 0.03,-0.487 0.193,-0.811 0.38,-1.176 -0.005,-0.15 -0.196,-0.266 -0.328,-0.236 -0.373,0.611 -0.977,1.39 -1.377,1.849 0.004,0.054 0.116,0.214 0.179,0.221 0.429,-0.232 0.729,0.162 1.163,0.699 l 3.824,4.72 c 0.508,0.631 0.571,0.754 0.409,1.175 0.024,0.076 0.139,0.196 0.205,0.181 C -3.2,7.822 -2.322,6.976 -1.943,6.727 -1.889,6.605 -2.049,6.407 -2.166,6.405 -2.485,6.606 -2.982,6.874 -3.253,6.803 -3.668,6.696 -4.12,6.328 -4.64,5.687 L -5.31,4.859 C -5.593,4.509 -5.571,4.511 -5.187,4.2 L 0,0 z"
             style="fill:#ffffff;fill-opacity:1;fill-rule:nonzero;stroke:none"
             id="path3076"
             inkscape:connector-curvature="0" /></g><g
           id="g3078"
           transform="translate(270.2251,407.4038)"><path
             d="M 0,0 C -1.03,1.171 -1.2,1.321 -1.935,0.815 L -2.135,0.68 C -2.242,0.666 -2.396,0.888 -2.359,0.981 -1.855,1.384 -1.462,1.709 -1,2.115 L 1.116,3.976 C 1.837,4.609 2.503,5.193 2.608,5.345 2.844,5.214 3.624,4.462 4.104,4.006 4.118,3.898 3.959,3.718 3.842,3.736 3.209,4.117 2.761,4.422 2.047,4.054 1.761,3.902 1.391,3.597 0.895,3.161 L 0.084,2.449 C -0.254,2.151 -0.235,2.13 0.142,1.701 L 2.121,-0.551 C 2.397,-0.867 2.432,-0.837 2.77,-0.54 L 3.423,0.034 C 3.896,0.449 4.226,0.779 4.321,0.942 4.416,1.106 4.437,1.243 4.245,1.574 L 3.929,2.116 C 3.926,2.233 4.117,2.401 4.229,2.362 4.468,2.091 4.81,1.612 5.186,1.185 5.541,0.779 5.963,0.39 6.182,0.143 6.205,0.024 6.014,-0.145 5.898,-0.126 L 5.411,0.224 C 5.188,0.388 4.962,0.487 4.687,0.345 4.489,0.251 4.209,0.026 3.77,-0.36 L 3.116,-0.935 C 2.778,-1.231 2.755,-1.272 3.012,-1.565 l 1.395,-1.588 c 0.524,-0.597 0.895,-0.95 1.242,-0.983 0.254,-0.017 0.6,0.067 1.59,0.938 0.869,0.761 1.156,1.094 1.295,1.436 0.104,0.29 0.061,0.952 -0.16,1.795 0.028,0.125 0.217,0.23 0.351,0.169 C 8.992,-0.262 9.473,-1.377 9.593,-1.81 8.56,-2.678 7.547,-3.547 6.545,-4.429 L 5.53,-5.318 C 5.047,-5.744 4.673,-6.092 4.028,-6.699 3.931,-6.724 3.751,-6.564 3.76,-6.437 l 0.342,0.361 c 0.592,0.62 0.5,0.838 -0.539,2.021 L 0,0 z"
             style="fill:#ffffff;fill-opacity:1;fill-rule:nonzero;stroke:none"
             id="path3080"
             inkscape:connector-curvature="0" /></g><g
           id="g3082"
           transform="translate(280.3667,412.6685)"><path
             d="M 0,0 C 0.142,-0.229 0.229,-0.37 0.299,-0.397 0.36,-0.412 0.567,-0.319 1.218,0.084 1.678,0.368 2.131,0.719 2.327,1.229 2.505,1.709 2.523,2.338 1.986,3.205 1.362,4.212 0.145,4.782 -1.271,3.906 -2.063,3.417 -2.068,3.342 -1.847,2.985 L 0,0 z M -2.176,1.177 C -2.925,2.389 -3.098,2.582 -3.66,2.322 L -4.1,2.121 c -0.129,0.008 -0.254,0.212 -0.183,0.326 0.674,0.506 1.53,1.089 2.78,1.863 0.79,0.489 1.583,0.891 2.367,0.935 C 1.674,5.305 2.475,5.007 3.028,4.114 3.778,2.902 3.231,1.647 2.752,0.997 2.735,0.881 2.879,0.793 3.005,0.731 c 2.038,-1.014 3.347,-1.617 4.663,-1.807 0.336,-0.057 0.742,0 1.102,0.188 0.08,0.013 0.156,-0.081 0.123,-0.171 C 8.803,-1.168 8.613,-1.32 8.371,-1.47 7.287,-2.141 6.439,-2.225 4.736,-1.497 4.112,-1.23 3.045,-0.674 2.294,-0.344 1.929,-0.182 1.646,-0.181 1.137,-0.497 0.562,-0.852 0.544,-0.88 0.71,-1.148 l 0.995,-1.607 c 0.828,-1.34 0.948,-1.477 1.752,-1.122 l 0.291,0.128 C 3.864,-3.765 3.973,-3.998 3.921,-4.083 3.331,-4.413 2.89,-4.669 2.38,-4.984 1.844,-5.316 1.392,-5.613 0.807,-6.009 0.708,-6.019 0.563,-5.843 0.585,-5.707 l 0.295,0.236 c 0.684,0.547 0.607,0.729 -0.222,2.069 l -2.834,4.579 z"
             style="fill:#ffffff;fill-opacity:1;fill-rule:nonzero;stroke:none"
             id="path3084"
             inkscape:connector-curvature="0" /></g><g
           id="g3086"
           transform="translate(297.3569,417.5239)"><path
             d="m 0,0 c 0.159,-0.421 0.791,-2.091 0.971,-2.44 0.004,-0.095 -0.053,-0.197 -0.207,-0.255 -0.259,0.174 -0.852,0.511 -2.599,1.438 l -4.658,2.472 c -0.543,0.292 -1.933,1.081 -2.345,1.278 l -0.028,-0.01 c 0.008,-0.19 0.115,-0.518 0.274,-0.939 l 1.159,-3.059 c 0.25,-0.659 0.955,-2.479 1.353,-2.809 0.143,-0.122 0.455,-0.1 0.816,0.005 l 0.451,0.122 c 0.126,-0.081 0.176,-0.254 0.105,-0.362 -0.642,-0.211 -1.139,-0.382 -1.657,-0.579 -0.59,-0.223 -0.964,-0.38 -1.444,-0.595 -0.126,0.033 -0.214,0.225 -0.161,0.34 l 0.364,0.185 c 0.305,0.165 0.498,0.334 0.51,0.516 0.006,0.579 -0.657,2.286 -0.912,2.96 l -1.537,4.054 c -0.147,0.393 -0.273,0.683 -0.689,0.894 -0.272,0.122 -0.646,0.093 -0.998,0.007 l -0.249,-0.062 c -0.117,0.052 -0.197,0.263 -0.105,0.361 0.606,0.182 1.349,0.463 1.602,0.559 0.224,0.085 0.458,0.19 0.629,0.287 0.552,-0.61 2.909,-1.836 3.568,-2.18 l 1.94,-1.013 c 1.377,-0.714 2.362,-1.239 3.278,-1.663 l 0.028,0.01 c 0.029,0.091 -0.056,0.316 -0.168,0.611 L -1.846,3.136 C -2.095,3.795 -2.8,5.614 -3.226,5.934 -3.357,6.028 -3.614,6.027 -4.202,5.885 L -4.451,5.823 C -4.582,5.87 -4.652,6.1 -4.555,6.184 c 0.658,0.216 1.139,0.383 1.673,0.585 0.603,0.228 0.963,0.38 1.426,0.59 0.14,-0.028 0.215,-0.224 0.162,-0.34 L -1.479,6.916 C -1.902,6.676 -2.141,6.458 -2.153,6.324 -2.202,5.729 -1.515,3.999 -1.27,3.354 L 0,0 z"
             style="fill:#ffffff;fill-opacity:1;fill-rule:nonzero;stroke:none"
             id="path3088"
             inkscape:connector-curvature="0" /></g><g
           id="g3090"
           transform="translate(302.3628,420.9761)"><path
             d="M 0,0 C -0.06,-0.36 -0.042,-0.373 0.372,-0.301 L 2.191,0.014 C 2.619,0.088 2.639,0.152 2.438,0.529 L 1.221,2.801 C 1.041,3.136 0.838,3.512 0.719,3.674 L 0.689,3.669 C 0.658,3.587 0.572,3.207 0.485,2.735 L 0,0 z M 3.155,-0.809 C 2.996,-0.501 2.929,-0.467 2.484,-0.544 L 0.253,-0.931 c -0.37,-0.064 -0.451,-0.124 -0.501,-0.452 l -0.248,-1.643 c -0.108,-0.703 -0.141,-1.121 -0.112,-1.284 0.029,-0.177 0.12,-0.252 0.479,-0.221 l 0.496,0.04 C 0.483,-4.547 0.523,-4.783 0.4,-4.865 0.011,-4.902 -0.447,-4.982 -1.145,-5.088 c -0.488,-0.084 -1.015,-0.206 -1.412,-0.29 -0.098,0.044 -0.17,0.275 -0.093,0.365 l 0.48,0.128 c 0.35,0.092 0.648,0.311 0.763,0.879 0.147,0.726 0.394,1.759 0.729,3.523 L 0.139,3.771 C 0.254,4.34 0.294,4.636 0.208,4.865 0.545,5.03 0.75,5.34 0.88,5.561 0.968,5.576 1.077,5.564 1.124,5.466 1.43,4.849 1.784,4.209 2.118,3.597 L 5.175,-1.998 C 5.824,-3.194 6.054,-3.383 6.703,-3.347 L 7.11,-3.322 C 7.226,-3.378 7.238,-3.62 7.171,-3.691 6.56,-3.767 6.041,-3.842 5.375,-3.958 4.666,-4.081 4.109,-4.208 3.685,-4.297 3.557,-4.258 3.5,-4.024 3.59,-3.932 l 0.422,0.119 c 0.304,0.083 0.498,0.208 0.471,0.356 -0.029,0.163 -0.148,0.415 -0.327,0.75 l -1.001,1.898 z"
             style="fill:#ffffff;fill-opacity:1;fill-rule:nonzero;stroke:none"
             id="path3092"
             inkscape:connector-curvature="0" /></g><g
           id="g3094"
           transform="translate(313.9658,419.5591)"><path
             d="M 0,0 C 0.023,-1.575 0.056,-1.8 0.927,-1.863 L 1.408,-1.901 C 1.498,-1.96 1.473,-2.23 1.38,-2.276 c -0.857,0.018 -1.365,0.026 -1.965,0.017 -0.6,-0.009 -1.125,-0.031 -2.084,-0.074 -0.091,0.044 -0.124,0.299 -0.005,0.375 l 0.539,0.053 c 0.855,0.086 0.926,0.313 0.906,1.888 L -1.322,6.69 C -1.329,7.156 -1.329,7.17 -1.779,7.164 L -2.604,7.153 C -3.25,7.145 -4.074,7.103 -4.445,6.752 -4.8,6.417 -4.946,6.085 -5.106,5.708 c -0.119,-0.092 -0.33,-0.02 -0.391,0.099 0.229,0.678 0.442,1.642 0.54,2.244 0.044,0.03 0.238,0.048 0.283,0.004 0.097,-0.479 0.592,-0.457 1.283,-0.448 L 2.686,7.691 C 3.496,7.702 3.631,7.734 3.851,8.127 3.925,8.159 4.091,8.146 4.122,8.086 3.964,7.469 3.876,6.252 3.928,5.802 3.869,5.681 3.614,5.678 3.538,5.767 3.488,6.142 3.376,6.695 3.147,6.857 2.799,7.107 2.227,7.22 1.401,7.208 L 0.337,7.194 C -0.114,7.187 -0.099,7.172 -0.091,6.677 L 0,0 z"
             style="fill:#ffffff;fill-opacity:1;fill-rule:nonzero;stroke:none"
             id="path3096"
             inkscape:connector-curvature="0" /></g><g
           id="g3098"
           transform="translate(321.5039,424.5083)"><path
             d="M 0,0 C 0.197,1.577 0.198,1.833 -0.67,2.018 L -1.037,2.093 C -1.119,2.164 -1.056,2.429 -0.961,2.461 -0.221,2.339 0.282,2.261 0.908,2.183 1.504,2.108 2.012,2.061 2.758,1.998 2.842,1.941 2.838,1.67 2.742,1.622 L 2.366,1.639 C 1.479,1.674 1.417,1.424 1.222,-0.153 L 0.56,-5.449 C 0.362,-7.026 0.366,-7.238 1.231,-7.452 l 0.368,-0.091 c 0.081,-0.071 0.018,-0.334 -0.077,-0.368 -0.739,0.122 -1.244,0.2 -1.839,0.274 -0.624,0.078 -1.132,0.126 -1.88,0.19 -0.084,0.056 -0.083,0.297 0.016,0.375 l 0.378,-0.001 c 0.89,-0.006 0.947,0.199 1.144,1.776 L 0,0 z"
             style="fill:#ffffff;fill-opacity:1;fill-rule:nonzero;stroke:none"
             id="path3100"
             inkscape:connector-curvature="0" /></g><g
           id="g3102"
           transform="translate(334.6084,418.4478)"><path
             d="M 0,0 C 0.681,2.381 0.359,5.249 -2.396,6.035 -3.897,6.464 -6.137,5.995 -7.038,2.835 -7.647,0.699 -7.399,-2.367 -4.557,-3.178 -2.826,-3.671 -0.81,-2.842 0,0 m -8.613,2.785 c 0.824,2.886 3.617,4.476 6.59,3.628 3.332,-0.951 4.319,-3.838 3.593,-6.378 -0.83,-2.914 -3.658,-4.4 -6.441,-3.606 -3.204,0.914 -4.483,3.759 -3.742,6.356"
             style="fill:#ffffff;fill-opacity:1;fill-rule:nonzero;stroke:none"
             id="path3104"
             inkscape:connector-curvature="0" /></g><g
           id="g3106"
           transform="translate(345.5879,410.9932)"><path
             d="M 0,0 C -0.211,-0.397 -1.052,-1.972 -1.195,-2.338 -1.265,-2.404 -1.379,-2.427 -1.524,-2.35 -1.562,-2.04 -1.7,-1.372 -2.153,0.554 L -3.36,5.687 C -3.499,6.288 -3.821,7.854 -3.943,8.293 L -3.97,8.308 C -4.107,8.177 -4.283,7.88 -4.495,7.482 L -6.033,4.596 c -0.333,-0.622 -1.238,-2.35 -1.224,-2.868 0,-0.188 0.223,-0.408 0.54,-0.611 l 0.39,-0.259 c 0.022,-0.149 -0.075,-0.3 -0.202,-0.317 -0.582,0.344 -1.039,0.605 -1.529,0.866 -0.555,0.297 -0.921,0.474 -1.398,0.694 -0.058,0.116 0.028,0.309 0.149,0.346 l 0.379,-0.151 c 0.326,-0.123 0.58,-0.157 0.724,-0.046 0.439,0.377 1.287,2 1.627,2.635 l 2.04,3.826 c 0.197,0.372 0.334,0.657 0.218,1.109 -0.087,0.285 -0.355,0.547 -0.652,0.756 l -0.211,0.146 c -0.036,0.122 0.069,0.321 0.203,0.317 0.535,-0.336 1.238,-0.71 1.476,-0.837 0.211,-0.114 0.443,-0.22 0.629,-0.285 C -2.969,9.1 -2.338,6.519 -2.163,5.796 l 0.515,-2.128 c 0.37,-1.506 0.623,-2.593 0.907,-3.561 l 0.026,-0.014 c 0.087,0.037 0.201,0.249 0.349,0.528 L 1.146,3.454 C 1.478,4.077 2.382,5.804 2.342,6.335 2.326,6.498 2.157,6.69 1.662,7.038 L 1.45,7.185 C 1.4,7.314 1.526,7.519 1.655,7.501 2.252,7.15 2.695,6.896 3.199,6.628 3.769,6.325 4.119,6.155 4.58,5.941 4.651,5.819 4.553,5.633 4.43,5.596 L 4.23,5.668 C 3.772,5.828 3.45,5.864 3.341,5.786 2.861,5.429 2.013,3.774 1.688,3.165 L 0,0 z"
             style="fill:#ffffff;fill-opacity:1;fill-rule:nonzero;stroke:none"
             id="path3108"
             inkscape:connector-curvature="0" /></g><g
           id="g3110"
           transform="translate(351.501,409.4819)"><path
             d="M 0,0 C -0.311,-0.192 -0.31,-0.213 0.017,-0.478 L 1.451,-1.641 C 1.789,-1.915 1.85,-1.887 2,-1.487 l 0.911,2.41 C 3.045,1.278 3.196,1.678 3.239,1.875 L 3.216,1.893 C 3.134,1.863 2.79,1.679 2.379,1.433 L 0,0 z m 1.465,-2.909 c 0.127,0.323 0.108,0.396 -0.24,0.68 l -1.761,1.426 c -0.29,0.237 -0.389,0.259 -0.67,0.08 l -1.399,-0.892 c -0.601,-0.383 -0.938,-0.632 -1.041,-0.76 -0.115,-0.14 -0.113,-0.257 0.147,-0.507 l 0.357,-0.347 c 0.035,-0.125 -0.117,-0.311 -0.26,-0.273 -0.284,0.27 -0.645,0.563 -1.184,1.019 -0.384,0.311 -0.822,0.629 -1.147,0.872 -0.033,0.104 0.096,0.309 0.213,0.311 l 0.414,-0.277 c 0.298,-0.204 0.659,-0.284 1.162,0.003 0.644,0.366 1.586,0.859 3.134,1.767 L 2.932,2.376 C 3.435,2.663 3.683,2.828 3.8,3.042 4.146,2.896 4.515,2.946 4.765,2.994 4.835,2.937 4.897,2.848 4.855,2.747 4.59,2.111 4.342,1.424 4.102,0.77 L 1.897,-5.211 C 1.423,-6.487 1.432,-6.785 1.887,-7.25 l 0.285,-0.29 c 0.035,-0.124 -0.14,-0.292 -0.235,-0.291 -0.459,0.41 -0.858,0.753 -1.382,1.179 -0.56,0.453 -1.022,0.79 -1.369,1.052 -0.055,0.122 0.084,0.318 0.213,0.31 l 0.366,-0.239 c 0.263,-0.176 0.483,-0.238 0.578,-0.121 0.103,0.128 0.216,0.385 0.35,0.74 l 0.772,2.001 z"
             style="fill:#ffffff;fill-opacity:1;fill-rule:nonzero;stroke:none"
             id="path3112"
             inkscape:connector-curvature="0" /></g><g
           id="g3114"
           transform="translate(360.4072,405.3042)"><path
             d="m 0,0 c 1.174,1.049 1.334,1.231 0.76,1.986 l -0.227,0.3 C 0.519,2.394 0.739,2.551 0.833,2.514 1.37,1.867 1.698,1.477 2.097,1.029 2.486,0.593 2.837,0.223 3.359,-0.317 3.387,-0.415 3.205,-0.616 3.1,-0.59 L 2.838,-0.341 C 2.192,0.27 1.994,0.132 0.819,-0.917 l -3.894,-3.477 c -0.704,-0.629 -0.966,-0.922 -0.999,-1.314 -0.013,-0.232 0.042,-0.565 0.832,-1.449 0.848,-0.951 1.103,-1.146 1.364,-1.236 0.334,-0.103 0.997,-0.035 1.767,0.251 0.116,-0.017 0.261,-0.27 0.183,-0.339 -0.124,-0.11 -1.545,-0.816 -1.987,-0.929 -0.486,0.591 -1.425,1.663 -2.454,2.816 l -0.919,1.03 c -0.419,0.469 -0.751,0.818 -1.332,1.424 -0.026,0.098 0.133,0.279 0.261,0.272 l 0.333,-0.305 c 0.646,-0.589 0.823,-0.472 1.998,0.577 L 0,0 z"
             style="fill:#ffffff;fill-opacity:1;fill-rule:nonzero;stroke:none"
             id="path3116"
             inkscape:connector-curvature="0" /></g><g
           id="g3118"
           transform="translate(371.2119,386.7217)"><path
             d="M 0,0 C 0.825,0.429 2.343,1.252 2.625,1.685 2.735,1.861 2.704,2.149 2.559,2.496 L 2.412,2.843 C 2.464,2.971 2.65,3.034 2.741,2.982 2.979,2.463 3.221,1.964 3.491,1.444 3.781,0.886 3.981,0.533 4.26,0.066 4.249,-0.074 4.068,-0.151 3.954,-0.126 L 3.762,0.18 C 3.563,0.499 3.312,0.689 3.097,0.679 2.561,0.638 1.029,-0.158 0.284,-0.545 l -1.505,-0.782 c -1.158,-0.602 -2.479,-1.052 -3.666,-0.722 -0.923,0.248 -1.781,1.054 -2.293,2.038 -0.476,0.919 -0.781,1.928 -0.56,2.87 0.218,1.01 1.017,1.848 2.601,2.671 l 3.143,1.632 c 1.384,0.72 1.597,0.864 1.262,1.671 L -0.88,9.18 c 0.012,0.108 0.251,0.198 0.33,0.14 C -0.231,8.641 -0.01,8.181 0.267,7.648 0.551,7.103 0.792,6.67 1.161,6.03 1.163,5.931 0.95,5.786 0.855,5.839 L 0.663,6.144 C 0.194,6.882 -0.045,6.791 -1.43,6.071 L -4.306,4.577 c -2.142,-1.114 -3.208,-2.513 -2.15,-4.549 1.003,-1.93 2.901,-1.874 4.925,-0.823 L 0,0 z"
             style="fill:#ffffff;fill-opacity:1;fill-rule:nonzero;stroke:none"
             id="path3120"
             inkscape:connector-curvature="0" /></g><g
           id="g3122"
           transform="translate(371.9854,372.9658)"><path
             d="m 0,0 c -0.433,-0.121 -2.15,-0.604 -2.514,-0.754 -0.095,0.005 -0.192,0.072 -0.236,0.231 0.197,0.242 0.584,0.802 1.661,2.46 l 2.87,4.42 C 2.118,6.873 3.025,8.188 3.26,8.579 L 3.25,8.608 C 3.062,8.617 2.725,8.538 2.292,8.417 L -0.854,7.532 C -1.533,7.342 -3.405,6.8 -3.771,6.433 -3.905,6.302 -3.91,5.988 -3.837,5.619 L -3.754,5.16 C -3.846,5.041 -4.023,5.007 -4.125,5.087 -4.278,5.745 -4.405,6.254 -4.555,6.788 -4.727,7.395 -4.85,7.78 -5.021,8.277 -4.977,8.399 -4.778,8.47 -4.668,8.408 L -4.515,8.03 C -4.378,7.711 -4.228,7.504 -4.048,7.476 -3.472,7.42 -1.715,7.93 -1.021,8.124 L 3.15,9.297 C 3.555,9.41 3.854,9.51 4.102,9.906 4.246,10.165 4.25,10.54 4.196,10.899 l -0.041,0.253 c 0.063,0.112 0.28,0.172 0.369,0.073 C 4.652,10.606 4.867,9.842 4.94,9.581 5.005,9.351 5.088,9.109 5.17,8.93 4.515,8.434 3.088,6.194 2.688,5.569 L 1.508,3.726 C 0.676,2.418 0.066,1.482 -0.436,0.609 l 0.008,-0.028 c 0.088,-0.038 0.319,0.027 0.623,0.112 l 3.09,0.869 C 3.963,1.752 5.836,2.294 6.191,2.69 6.296,2.813 6.318,3.068 6.229,3.666 L 6.188,3.92 C 6.246,4.046 6.481,4.096 6.558,3.992 6.715,3.32 6.839,2.825 6.992,2.276 7.168,1.655 7.288,1.285 7.453,0.802 7.414,0.666 7.212,0.609 7.102,0.672 L 7.015,0.866 C 6.813,1.308 6.616,1.564 6.484,1.589 5.896,1.688 4.114,1.156 3.451,0.97 L 0,0 z"
             style="fill:#ffffff;fill-opacity:1;fill-rule:nonzero;stroke:none"
             id="path3124"
             inkscape:connector-curvature="0" /></g><g
           id="g3126"
           transform="translate(377.5908,369.3125)"><path
             d="M 0,0 C 1.579,0.19 1.828,0.25 1.797,1.138 L 1.782,1.514 C 1.831,1.61 2.103,1.612 2.155,1.529 2.215,0.781 2.262,0.273 2.337,-0.353 2.408,-0.948 2.484,-1.453 2.606,-2.194 2.571,-2.289 2.309,-2.351 2.238,-2.269 L 2.162,-1.9 c -0.18,0.87 -0.435,0.869 -2.016,0.679 l -5.299,-0.638 c -1.579,-0.19 -1.784,-0.245 -1.783,-1.136 l 0.001,-0.377 c -0.049,-0.097 -0.32,-0.1 -0.376,-0.016 -0.059,0.748 -0.106,1.257 -0.177,1.852 -0.075,0.626 -0.151,1.13 -0.271,1.871 0.034,0.095 0.269,0.153 0.368,0.075 l 0.09,-0.367 c 0.21,-0.866 0.422,-0.871 2.001,-0.681 L 0,0 z"
             style="fill:#ffffff;fill-opacity:1;fill-rule:nonzero;stroke:none"
             id="path3128"
             inkscape:connector-curvature="0" /></g><g
           id="g3130"
           transform="translate(378.875,363.3115)"><path
             d="m 0,0 c 0.849,0.327 1.168,0.545 1.257,1.188 l 0.037,0.27 C 1.385,1.562 1.594,1.542 1.667,1.42 1.628,0.985 1.603,0.506 1.59,-0.14 1.575,-0.8 1.578,-1.324 1.595,-1.956 1.532,-2.06 1.308,-2.084 1.219,-1.978 l -0.025,0.226 c -0.063,0.571 -0.151,0.694 -0.27,0.711 -0.151,-0.026 -0.967,-0.264 -2.116,-0.704 -1.754,-0.653 -3.495,-1.307 -5.222,-2.02 0.98,-0.486 2.513,-1.149 3.3,-1.511 1.01,-0.457 2.691,-1.199 3.331,-1.467 0.311,-0.127 0.476,-0.146 0.581,-0.149 0.105,-0.002 0.228,0.146 0.3,0.67 l 0.036,0.27 C 1.226,-5.851 1.451,-5.885 1.509,-5.991 1.47,-6.41 1.442,-6.979 1.43,-7.551 1.419,-8.045 1.424,-8.511 1.443,-9.006 1.381,-9.11 1.142,-9.104 1.067,-9.028 l -0.02,0.451 c -0.022,0.36 -0.197,0.59 -0.508,0.791 -0.696,0.435 -1.899,1.047 -3.414,1.754 l -1.828,0.849 c -1.367,0.631 -3.093,1.373 -3.882,1.645 -0.029,0.046 -0.043,0.106 -0.041,0.167 10e-4,0.074 0.019,0.149 0.049,0.223 0.634,0.152 1.375,0.406 2.01,0.647 L 0,0 z"
             style="fill:#ffffff;fill-opacity:1;fill-rule:nonzero;stroke:none"
             id="path3132"
             inkscape:connector-curvature="0" /></g><g
           id="g3134"
           transform="translate(377.4365,351.2979)"><path
             d="M 0,0 C 1.531,-0.299 1.759,-0.312 2.03,0.537 L 2.105,0.766 C 2.182,0.843 2.441,0.762 2.468,0.665 2.314,0.037 2.203,-0.46 2.086,-1.063 L 1.547,-3.832 C 1.362,-4.774 1.192,-5.644 1.202,-5.828 c -0.266,-0.04 -1.344,0.078 -2.003,0.145 -0.077,0.077 -0.061,0.318 0.041,0.374 0.736,0.086 1.278,0.119 1.617,0.847 0.134,0.295 0.241,0.763 0.367,1.411 l 0.207,1.061 c 0.086,0.44 0.056,0.446 -0.503,0.555 l -2.945,0.575 c -0.413,0.08 -0.421,0.036 -0.507,-0.406 L -2.69,-2.12 c -0.122,-0.619 -0.18,-1.081 -0.157,-1.269 0.026,-0.188 0.094,-0.308 0.447,-0.454 l 0.581,-0.235 c 0.074,-0.091 0.025,-0.342 -0.086,-0.381 -0.355,0.069 -0.917,0.24 -1.477,0.349 -0.53,0.103 -1.102,0.154 -1.427,0.216 -0.092,0.08 -0.044,0.33 0.06,0.386 l 0.6,0.021 c 0.276,0.008 0.517,0.067 0.649,0.347 0.098,0.196 0.182,0.546 0.293,1.12 l 0.168,0.854 c 0.086,0.442 0.079,0.489 -0.304,0.563 l -2.076,0.405 c -0.78,0.152 -1.289,0.206 -1.587,0.018 -0.211,-0.141 -0.431,-0.42 -0.685,-1.715 -0.22,-1.134 -0.245,-1.573 -0.146,-1.928 0.096,-0.294 0.534,-0.792 1.225,-1.323 0.053,-0.118 -0.031,-0.316 -0.175,-0.348 -0.494,0.203 -1.557,0.792 -1.918,1.06 0.288,1.321 0.559,2.627 0.812,3.938 l 0.259,1.325 c 0.124,0.634 0.207,1.138 0.347,2.012 0.061,0.079 0.302,0.062 0.373,-0.043 L -6.964,2.304 C -7.055,1.451 -6.848,1.334 -5.301,1.032 L 0,0 z"
             style="fill:#ffffff;fill-opacity:1;fill-rule:nonzero;stroke:none"
             id="path3136"
             inkscape:connector-curvature="0" /></g><g
           id="g3138"
           transform="translate(372.6377,340.9512)"><path
             d="m 0,0 c -0.254,0.095 -0.409,0.152 -0.479,0.132 -0.059,-0.027 -0.167,-0.227 -0.433,-0.944 -0.19,-0.505 -0.333,-1.06 -0.177,-1.583 0.154,-0.489 0.525,-0.996 1.48,-1.353 1.109,-0.415 2.421,-0.12 3.003,1.438 0.326,0.872 0.285,0.935 -0.108,1.081 L 0,0 z M 2.438,0.401 C 3.772,-0.098 4.026,-0.145 4.312,0.405 L 4.537,0.833 C 4.645,0.905 4.869,0.821 4.884,0.688 4.659,-0.125 4.339,-1.11 3.824,-2.486 3.499,-3.357 3.119,-4.159 2.525,-4.674 1.923,-5.218 1.107,-5.473 0.124,-5.105 c -1.334,0.499 -1.672,1.826 -1.689,2.632 -0.058,0.103 -0.225,0.085 -0.364,0.056 -2.233,-0.445 -3.634,-0.771 -4.792,-1.426 -0.3,-0.16 -0.586,-0.453 -0.756,-0.822 -0.054,-0.06 -0.172,-0.031 -0.202,0.06 0.006,0.141 0.062,0.376 0.161,0.643 0.447,1.194 1.066,1.779 2.857,2.246 0.656,0.171 1.841,0.385 2.637,0.584 0.387,0.096 0.611,0.267 0.821,0.829 0.236,0.632 0.232,0.665 -0.063,0.777 L -3.035,1.135 C -4.51,1.686 -4.689,1.722 -5.105,0.948 L -5.258,0.669 c -0.102,-0.058 -0.33,0.06 -0.341,0.159 0.264,0.622 0.456,1.095 0.667,1.656 0.221,0.59 0.396,1.101 0.614,1.772 0.075,0.068 0.296,0.017 0.363,-0.104 L -4.045,3.785 C -4.251,2.935 -4.08,2.838 -2.604,2.286 L 2.438,0.401 z"
             style="fill:#ffffff;fill-opacity:1;fill-rule:nonzero;stroke:none"
             id="path3140"
             inkscape:connector-curvature="0" /></g><g
           id="g3142"
           transform="translate(363.1611,333.7754)"><path
             d="M 0,0 C 0.619,1.098 1.352,1.598 1.635,1.765 2.011,1.759 3.035,1.405 3.664,1.084 3.718,0.967 3.633,0.756 3.525,0.748 2.748,0.929 1.166,1.117 0.309,-0.398 c -0.62,-1.098 -0.205,-2.04 0.58,-2.482 0.575,-0.325 1.28,-0.569 2.434,0.037 l 1.51,0.784 c 0.801,0.409 1.974,0.747 3.045,0.141 1.241,-0.702 1.7,-2.237 0.74,-3.935 C 8.39,-6.258 8.046,-6.684 7.762,-6.972 7.614,-7.112 7.484,-7.28 7.426,-7.385 c -0.38,0.06 -1.179,0.356 -1.728,0.666 -0.049,0.096 0.031,0.327 0.146,0.349 0.723,-0.185 1.772,-0.312 2.48,0.942 0.724,1.28 0.03,2.033 -0.571,2.373 -0.758,0.429 -1.661,0.112 -2.234,-0.201 L 4.275,-3.933 C 3.301,-4.468 2.085,-4.849 0.845,-4.148 -0.594,-3.336 -0.959,-1.698 0,0"
             style="fill:#ffffff;fill-opacity:1;fill-rule:nonzero;stroke:none"
             id="path3144"
             inkscape:connector-curvature="0" /></g><g
           id="g3146"
           transform="translate(366.2012,323.9082)"><path
             d="m 0,0 c 1.284,-0.938 1.507,-1.064 2.089,-0.395 l 0.246,0.286 C 2.437,-0.072 2.638,-0.255 2.622,-0.354 2.155,-0.943 1.842,-1.346 1.47,-1.854 1.117,-2.339 0.827,-2.759 0.408,-3.382 0.318,-3.429 0.083,-3.293 0.088,-3.186 l 0.196,0.321 c 0.462,0.759 0.275,0.933 -1.01,1.872 L -5.037,2.156 C -6.32,3.095 -6.508,3.194 -7.115,2.542 L -7.373,2.266 c -0.102,-0.037 -0.301,0.146 -0.284,0.245 0.466,0.588 0.779,0.991 1.133,1.475 0.372,0.509 0.662,0.929 1.079,1.552 0.09,0.047 0.299,-0.07 0.32,-0.196 L -5.31,5.013 C -5.747,4.236 -5.595,4.088 -4.312,3.149 L 0,0 z"
             style="fill:#ffffff;fill-opacity:1;fill-rule:nonzero;stroke:none"
             id="path3148"
             inkscape:connector-curvature="0" /></g><g
           id="g3150"
           transform="translate(355.9189,320.0205)"><path
             d="M 0,0 C -1.132,1.095 -1.313,1.23 -1.972,0.657 L -2.34,0.344 C -2.444,0.321 -2.617,0.53 -2.588,0.627 -1.972,1.22 -1.605,1.575 -1.187,2.007 -0.771,2.438 -0.415,2.825 0.23,3.535 0.326,3.568 0.529,3.413 0.5,3.274 L 0.155,2.855 C -0.385,2.188 -0.275,1.979 0.856,0.883 L 5.672,-3.782 C 6.007,-4.105 6.017,-4.116 6.33,-3.793 L 6.903,-3.2 c 0.45,0.463 1.002,1.076 1.015,1.586 0.014,0.487 -0.118,0.825 -0.273,1.205 0.018,0.148 0.218,0.247 0.345,0.207 C 8.31,-0.845 8.842,-1.674 9.201,-2.167 9.19,-2.22 9.065,-2.37 9.002,-2.371 8.594,-2.102 8.261,-2.468 7.781,-2.964 L 3.554,-7.327 C 2.99,-7.909 2.918,-8.027 3.041,-8.46 3.011,-8.535 2.886,-8.643 2.821,-8.623 2.494,-8.076 1.695,-7.155 1.34,-6.874 c -0.043,0.126 0.134,0.31 0.25,0.301 0.301,-0.23 0.772,-0.54 1.048,-0.493 0.423,0.07 0.906,0.396 1.48,0.989 l 0.74,0.765 c 0.314,0.323 0.291,0.323 -0.063,0.667 L 0,0 z"
             style="fill:#ffffff;fill-opacity:1;fill-rule:nonzero;stroke:none"
             id="path3152"
             inkscape:connector-curvature="0" /></g><g
           id="g3154"
           transform="translate(348.1924,313.4062)"><path
             d="M 0,0 C -0.944,1.296 -1.16,1.437 -1.85,1.008 L -2.336,0.709 c -0.126,0.02 -0.243,0.231 -0.197,0.32 0.769,0.524 1.19,0.813 1.675,1.166 C -0.35,2.566 0.078,2.896 0.702,3.39 0.801,3.406 0.968,3.23 0.948,3.104 L 0.598,2.794 C -0.051,2.208 0.048,2.021 0.995,0.725 L 1.445,0.107 C 1.932,-0.56 2.083,-0.69 2.93,-1.113 l 3.464,-1.742 c 0.994,-0.499 1.22,-0.427 1.627,-0.223 l 0.383,0.187 C 8.539,-2.923 8.65,-3.102 8.6,-3.212 8.195,-3.47 7.75,-3.776 7.169,-4.201 6.611,-4.607 6.184,-4.937 5.9,-5.184 5.764,-5.227 5.623,-5.032 5.643,-4.907 l 0.139,0.139 c 0.38,0.371 0.42,0.493 0.35,0.589 -0.087,0.121 -0.907,0.582 -1.057,0.659 -1.102,0.57 -2.249,1.2 -3.331,1.691 0.092,-0.916 0.206,-1.91 0.356,-2.879 0.119,-0.877 0.273,-2.028 0.379,-2.174 0.053,-0.072 0.333,0.002 0.65,0.178 l 0.236,0.136 C 3.512,-6.593 3.623,-6.771 3.561,-6.89 3.105,-7.184 2.747,-7.428 2.371,-7.701 1.995,-7.976 1.665,-8.235 1.271,-8.561 1.131,-8.571 0.994,-8.41 1.027,-8.275 l 0.294,0.308 c 0.551,0.569 0.358,1.597 0.202,3.081 l -0.2,1.877 C 1.185,-1.699 1.142,-1.563 0.46,-0.63 L 0,0 z"
             style="fill:#ffffff;fill-opacity:1;fill-rule:nonzero;stroke:none"
             id="path3156"
             inkscape:connector-curvature="0" /></g><g
           id="g3158"
           transform="translate(314.5684,316.1221)"><path
             d="m 0,0 c 33.413,14.813 33.566,46.824 33.566,46.824 l 0,28.455 C 33.645,75.204 21.811,86.63 0.028,86.63 c -21.783,0 -34.352,-11.204 -34.352,-11.204 l 0,-28.6 c 0,0 -0.608,-31.611 34.324,-46.826"
             style="fill:#294297;fill-opacity:1;fill-rule:nonzero;stroke:none"
             id="path3160"
             inkscape:connector-curvature="0" /></g><g
           id="g3162"
           transform="translate(314.708,317.5752)"><path
             d="M 0,0 C 0,40.251 -0.102,46.215 -0.102,46.215 L -33.138,46.208 C -33.138,46.208 -33.724,14.689 0,0"
             style="fill:#f9d040;fill-opacity:1;fill-rule:nonzero;stroke:none"
             id="path3164"
             inkscape:connector-curvature="0" /></g><g
           id="g3166"
           transform="translate(314.5918,312.9551)"><path
             d="m 0,0 c 35.887,15.901 36.05,50.268 36.05,50.268 l 0,30.547 c 0.484,0 -15.194,11.651 -36.54,11.651 -21.347,0 -36.375,-11.493 -36.375,-11.493 l 0,-30.703 c 0,0 -0.653,-33.937 36.865,-50.27 z"
             style="fill:none;stroke:#294297;stroke-width:1;stroke-linecap:butt;stroke-linejoin:miter;stroke-miterlimit:10;stroke-opacity:1;stroke-dasharray:none"
             id="path3168"
             inkscape:connector-curvature="0" /></g><g
           id="g3170"
           transform="translate(292.3091,303.6387)"><path
             d="m 0,0 c -0.319,-0.711 -1.13,-1.004 -1.832,-0.689 -0.702,0.315 -1.022,1.116 -0.703,1.827 0.319,0.711 1.134,1.013 1.836,0.699 C 0.003,1.521 0.32,0.712 0,0"
             style="fill:#f4f4f4;fill-opacity:1;fill-rule:nonzero;stroke:none"
             id="path3172"
             inkscape:connector-curvature="0" /></g><g
           id="g3174"
           transform="translate(298.6108,302.4912)"><path
             d="m 0,0 c -0.728,0.19 -1.244,-0.297 -1.549,-1.462 -0.199,-0.759 -0.23,-1.309 -0.095,-1.653 0.135,-0.344 0.357,-0.556 0.666,-0.637 0.362,-0.095 0.706,10e-4 1.031,0.288 0.326,0.286 0.567,0.727 0.722,1.322 0.139,0.526 0.14,0.989 0.005,1.39 C 0.644,-0.352 0.384,-0.101 0,0 M 2.034,-0.114 2.235,-0.253 C 2.05,-0.601 1.9,-0.989 1.789,-1.418 L 1.209,-3.634 C 1.094,-4.071 1.215,-4.337 1.574,-4.431 l 0.307,-0.081 -0.092,-0.353 -1.512,0.396 0.124,0.932 c -0.526,-0.553 -1.089,-0.749 -1.694,-0.591 -0.505,0.132 -0.878,0.455 -1.121,0.97 -0.245,0.514 -0.275,1.118 -0.094,1.811 0.178,0.681 0.514,1.178 1.009,1.493 0.496,0.314 0.991,0.406 1.489,0.276 0.615,-0.162 1.014,-0.589 1.193,-1.282 0.296,0.252 0.578,0.501 0.851,0.746"
             style="fill:#f4f4f4;fill-opacity:1;fill-rule:nonzero;stroke:none"
             id="path3176"
             inkscape:connector-curvature="0" /></g><g
           id="g3178"
           transform="translate(304.2637,301.2588)"><path
             d="m 0,0 -0.368,1.756 c -0.088,0.442 -0.17,0.721 -0.247,0.835 -0.075,0.114 -0.221,0.187 -0.437,0.222 l -0.323,0.05 0.057,0.363 1.505,-0.143 1.579,-6.92 c 0.056,-0.246 0.26,-0.398 0.61,-0.457 L 2.319,-4.655 0.051,-4.3 0.108,-3.938 c 0.268,-0.039 0.454,-0.047 0.557,-0.026 0.101,0.023 0.161,0.086 0.178,0.193 0.006,0.039 0,0.103 -0.019,0.196 l -0.678,3.039 -1.449,-2.32 c -0.128,-0.205 -0.198,-0.352 -0.212,-0.442 -0.032,-0.202 0.178,-0.364 0.63,-0.484 l -0.057,-0.363 -1.93,0.303 0.057,0.363 c 0.215,-0.021 0.391,0.005 0.528,0.078 0.14,0.071 0.296,0.248 0.472,0.531 L 0,0 z"
             style="fill:#f4f4f4;fill-opacity:1;fill-rule:nonzero;stroke:none"
             id="path3180"
             inkscape:connector-curvature="0" /></g><g
           id="g3182"
           transform="translate(310.9678,301.6162)"><path
             d="M 0,0 -0.2,0.979 C -0.256,1.25 -0.281,1.457 -0.272,1.601 -0.254,1.925 -0.093,2.079 0.213,2.063 0.379,2.053 0.499,2.001 0.574,1.905 0.648,1.81 0.682,1.703 0.676,1.586 0.668,1.463 0.613,1.247 0.512,0.939 L 0.204,-0.011 0,0 z m -2.825,-0.589 1.528,-0.032 c 0.044,-0.26 0.068,-0.585 0.072,-0.973 0.444,0.641 1.019,0.941 1.724,0.902 0.488,-0.028 0.841,-0.198 1.06,-0.51 0.217,-0.313 0.315,-0.704 0.289,-1.176 l -0.231,-4.1 C 1.606,-6.665 1.644,-6.792 1.728,-6.855 1.813,-6.919 1.929,-6.954 2.079,-6.963 L 2.4,-6.981 2.379,-7.347 l -2.412,0.136 0.021,0.365 0.23,-0.012 c 0.386,-0.022 0.587,0.103 0.602,0.377 l 0.214,3.832 c 0.053,0.922 -0.263,1.403 -0.945,1.441 -0.368,0.021 -0.683,-0.109 -0.945,-0.392 -0.262,-0.282 -0.406,-0.66 -0.432,-1.134 l -0.095,-1.692 c -0.012,-0.192 0.028,-0.319 0.115,-0.381 0.087,-0.061 0.206,-0.096 0.352,-0.105 l 0.315,-0.018 -0.02,-0.366 -2.422,0.137 0.021,0.365 0.318,-0.018 c 0.326,-0.018 0.497,0.086 0.51,0.314 l 0.166,2.95 c 0.019,0.363 -0.175,0.557 -0.585,0.58 l -0.234,0.013 0.022,0.366 z"
             style="fill:#f4f4f4;fill-opacity:1;fill-rule:nonzero;stroke:none"
             id="path3184"
             inkscape:connector-curvature="0" /></g><g
           id="g3186"
           transform="translate(318.3984,299.8701)"><path
             d="m 0,0 -2.766,-0.128 c 0.071,-1.299 0.238,-2.166 0.499,-2.601 0.263,-0.435 0.599,-0.643 1.01,-0.624 0.48,0.022 0.822,0.29 1.029,0.804 C -0.021,-2.035 0.055,-1.186 0,0 m -2.778,0.35 2.747,0.128 C -0.101,1.557 -0.263,2.319 -0.52,2.767 -0.774,3.215 -1.119,3.428 -1.551,3.408 -1.954,3.39 -2.268,3.179 -2.492,2.777 -2.716,2.376 -2.812,1.567 -2.778,0.35 m 1.174,3.437 C -1.128,3.809 -0.696,3.672 -0.311,3.376 0.076,3.079 0.373,2.659 0.578,2.115 0.785,1.571 0.905,0.914 0.941,0.144 0.997,-1.039 0.819,-1.973 0.409,-2.658 0.001,-3.343 -0.542,-3.701 -1.215,-3.732 c -0.409,-0.019 -0.799,0.098 -1.17,0.351 -0.37,0.253 -0.676,0.661 -0.919,1.225 -0.243,0.563 -0.383,1.253 -0.421,2.069 -0.04,0.835 0.041,1.549 0.24,2.143 0.2,0.593 0.459,1.026 0.778,1.297 0.32,0.27 0.687,0.415 1.103,0.434"
             style="fill:#f4f4f4;fill-opacity:1;fill-rule:nonzero;stroke:none"
             id="path3188"
             inkscape:connector-curvature="0" /></g><g
           id="g3190"
           transform="translate(322.1182,299.0674)"><path
             d="m 0,0 c -0.794,0.014 -1.231,0.306 -1.314,0.876 -0.057,0.403 0.066,0.744 0.374,1.023 0.306,0.28 0.727,0.457 1.261,0.535 C 0.889,2.515 1.344,2.452 1.686,2.245 2.027,2.037 2.221,1.777 2.267,1.465 2.292,1.288 2.262,1.129 2.174,0.99 2.088,0.852 1.965,0.771 1.808,0.747 1.662,0.727 1.531,0.759 1.416,0.844 1.301,0.93 1.232,1.043 1.212,1.185 1.191,1.319 1.217,1.447 1.285,1.565 1.351,1.684 1.381,1.762 1.375,1.8 1.358,1.919 1.254,2.007 1.062,2.063 0.872,2.12 0.67,2.133 0.453,2.102 0.125,2.055 -0.122,1.931 -0.284,1.729 -0.448,1.528 -0.51,1.288 -0.471,1.007 -0.437,0.782 -0.336,0.594 -0.163,0.442 0.008,0.291 0.342,0.251 0.838,0.322 L 0.89,-0.041 c -0.828,-0.118 -1.195,-0.516 -1.097,-1.19 0.044,-0.309 0.192,-0.521 0.445,-0.637 0.253,-0.116 0.555,-0.15 0.902,-0.1 0.595,0.085 1.026,0.442 1.294,1.07 l 0.288,-0.113 c -0.248,-0.775 -0.825,-1.227 -1.73,-1.357 -0.57,-0.083 -1.046,-0.04 -1.427,0.127 -0.38,0.167 -0.599,0.449 -0.657,0.848 C -1.178,-0.792 -0.814,-0.327 0,0"
             style="fill:#f4f4f4;fill-opacity:1;fill-rule:nonzero;stroke:none"
             id="path3192"
             inkscape:connector-curvature="0" /></g><g
           id="g3194"
           transform="translate(325.3809,301.4727)"><path
             d="m 0,0 -0.084,0.356 1.763,0.465 0.747,-3.219 c 0.139,-0.597 0.382,-0.854 0.729,-0.773 0.404,0.094 0.524,0.575 0.358,1.446 l 0.319,0.074 c 0.077,-0.36 0.1,-0.685 0.069,-0.976 C 3.87,-2.919 3.792,-3.15 3.67,-3.322 3.545,-3.495 3.333,-3.617 3.032,-3.687 2.733,-3.756 2.492,-3.758 2.306,-3.692 2.12,-3.627 1.981,-3.516 1.889,-3.358 1.794,-3.201 1.706,-2.94 1.62,-2.576 L 1.095,-0.312 C 1.012,0.046 0.769,0.179 0.366,0.085 L 0,0 z"
             style="fill:#f4f4f4;fill-opacity:1;fill-rule:nonzero;stroke:none"
             id="path3196"
             inkscape:connector-curvature="0" /></g><g
           id="g3198"
           transform="translate(331.3916,303.1309)"><path
             d="m 0,0 c -0.712,-0.242 -0.874,-0.934 -0.484,-2.073 0.253,-0.743 0.531,-1.22 0.833,-1.431 0.302,-0.212 0.605,-0.267 0.907,-0.163 0.354,0.121 0.588,0.391 0.701,0.81 0.113,0.418 0.071,0.919 -0.128,1.501 -0.176,0.514 -0.43,0.901 -0.765,1.161 C 0.73,0.063 0.376,0.129 0,0 M 1.759,1.028 2.003,1.024 C 2.041,0.631 2.131,0.226 2.273,-0.193 l 0.74,-2.168 C 3.159,-2.789 3.407,-2.943 3.759,-2.823 L 4.06,-2.722 4.177,-3.067 2.699,-3.572 2.287,-2.728 C 2.153,-3.478 1.792,-3.953 1.201,-4.155 0.708,-4.324 0.217,-4.261 -0.271,-3.966 c -0.486,0.294 -0.845,0.781 -1.077,1.458 -0.226,0.666 -0.221,1.267 0.017,1.803 0.239,0.534 0.602,0.886 1.089,1.051 0.603,0.206 1.171,0.07 1.702,-0.409 0.107,0.374 0.206,0.737 0.299,1.091"
             style="fill:#f4f4f4;fill-opacity:1;fill-rule:nonzero;stroke:none"
             id="path3200"
             inkscape:connector-curvature="0" /></g><g
           id="g3202"
           transform="translate(340.6836,306.3604)"><path
             d="M 0,0 C 0.377,-0.683 0.125,-1.508 -0.55,-1.881 -1.225,-2.253 -2.059,-2.027 -2.435,-1.345 -2.812,-0.661 -2.564,0.173 -1.89,0.546 -1.215,0.918 -0.378,0.684 0,0"
             style="fill:#f4f4f4;fill-opacity:1;fill-rule:nonzero;stroke:none"
             id="path3204"
             inkscape:connector-curvature="0" /></g><g
           id="g3206"
           transform="translate(314.5898,363.7451)"><path
             d="m 0,0 c 4.398,0 31.977,-0.049 31.977,-0.049 l 0,26.578 C 32.048,26.461 20.633,37.258 0.098,37.356 -0.059,37.357 0,28.085 0,0"
             style="fill:#f9d040;fill-opacity:1;fill-rule:nonzero;stroke:none"
             id="path3208"
             inkscape:connector-curvature="0" /></g><g
           id="g3210"
           transform="translate(299.1689,374.332)"><path
             d="M 0,0 C 0,-3.15 0.06,-3.601 1.8,-3.75 L 2.76,-3.84 C 2.939,-3.961 2.879,-4.5 2.699,-4.59 0.989,-4.53 -0.03,-4.5 -1.23,-4.5 c -1.201,0 -2.25,-0.03 -4.17,-0.09 -0.18,0.09 -0.241,0.6 0,0.75 l 1.08,0.09 c 1.71,0.149 1.86,0.6 1.86,3.75 l 0,13.408 c 0,0.931 0,0.961 -0.9,0.961 l -1.651,0 c -1.289,0 -2.939,-0.06 -3.689,-0.75 -0.72,-0.66 -1.02,-1.32 -1.35,-2.07 -0.24,-0.18 -0.66,-0.029 -0.78,0.21 0.48,1.35 0.93,3.27 1.14,4.47 0.09,0.06 0.48,0.089 0.57,0 0.18,-0.96 1.17,-0.93 2.55,-0.93 l 12.149,0 c 1.62,0 1.89,0.06 2.34,0.84 0.15,0.06 0.48,0.029 0.54,-0.09 -0.33,-1.231 -0.54,-3.66 -0.45,-4.561 -0.119,-0.239 -0.63,-0.239 -0.78,-0.059 -0.089,0.75 -0.299,1.86 -0.75,2.19 -0.69,0.51 -1.83,0.75 -3.48,0.75 l -2.13,0 C -0.03,14.369 0,14.339 0,13.349 L 0,0 z"
             style="fill:#d91920;fill-opacity:1;fill-rule:nonzero;stroke:none"
             id="path3212"
             inkscape:connector-curvature="0" /></g><g
           id="g3214"
           transform="translate(312.3682,385.0703)"><path
             d="M 0,0 C 0,3.181 -0.06,3.69 -1.83,3.84 L -2.58,3.9 C -2.76,4.021 -2.7,4.561 -2.52,4.65 -1.02,4.59 0,4.561 1.26,4.561 2.46,4.561 3.479,4.59 4.979,4.65 5.16,4.561 5.22,4.021 5.04,3.9 L 4.29,3.84 C 2.52,3.69 2.46,3.181 2.46,0 l 0,-10.679 c 0,-3.18 0.06,-3.6 1.83,-3.809 l 0.75,-0.09 c 0.18,-0.121 0.12,-0.66 -0.061,-0.75 -1.5,0.059 -2.519,0.09 -3.719,0.09 -1.26,0 -2.28,-0.031 -3.78,-0.09 -0.18,0.09 -0.24,0.569 -0.06,0.75 l 0.75,0.09 c 1.77,0.209 1.83,0.629 1.83,3.809 L 0,0 z"
             style="fill:#d91920;fill-opacity:1;fill-rule:nonzero;stroke:none"
             id="path3216"
             inkscape:connector-curvature="0" /></g><g
           id="g3218"
           transform="translate(337.418,382.1016)"><path
             d="m 0,0 c 0,1.859 -0.061,5.309 -0.57,6.209 -0.21,0.36 -0.75,0.57 -1.5,0.631 l -0.75,0.059 c -0.18,0.21 -0.12,0.6 0.06,0.72 1.14,-0.06 2.25,-0.09 3.42,-0.09 1.26,0 2.069,0.03 3.15,0.09 0.24,-0.15 0.21,-0.54 0.06,-0.72 L 3.149,6.84 C 2.399,6.779 1.83,6.51 1.649,6.119 1.229,5.129 1.229,1.68 1.229,0 l 0,-3.391 c 0,-2.609 -0.419,-5.369 -2.099,-7.17 -1.29,-1.41 -3.51,-2.189 -5.73,-2.189 -2.07,0 -4.139,0.391 -5.61,1.65 -1.59,1.32 -2.34,3.51 -2.34,7.079 l 0,7.081 c 0,3.12 -0.059,3.629 -1.8,3.78 l -0.75,0.059 c -0.179,0.121 -0.12,0.63 0.061,0.72 1.5,-0.06 2.519,-0.09 3.72,-0.09 1.229,0 2.219,0.03 3.689,0.09 0.18,-0.09 0.24,-0.599 0.061,-0.72 L -10.29,6.84 c -1.739,-0.151 -1.8,-0.66 -1.8,-3.78 l 0,-6.48 c 0,-4.83 1.5,-8.01 6.09,-8.01 4.35,0 6,3.42 6,7.98 L 0,0 z"
             style="fill:#d91920;fill-opacity:1;fill-rule:nonzero;stroke:none"
             id="path3220"
             inkscape:connector-curvature="0" /></g><g
           id="g3222"
           transform="translate(299.4692,356.8633)"><path
             d="m 0,0 c 0,0 0.14,-1.843 -0.162,-2.749 -0.215,-0.648 -1.886,-0.739 -1.962,-0.512 -0.152,0.455 -0.165,-3.81 -0.165,-3.81 0,0 0.165,-17.507 0.165,-16.9 0,0.259 6.321,1.201 13.498,1.169 1.249,-0.005 2.54,-1.239 3.504,-1.239 0.969,-0.001 1.612,1.234 2.857,1.239 7.064,0.026 14.326,-0.818 13.939,-0.175 -0.676,1.129 0.838,13.253 0.237,19.473 -0.077,0.804 -2.152,-0.243 -2.264,0.377 -0.188,1.04 0.357,2.224 0.039,2.517 C 27.712,1.212 13.364,0.285 11.845,0.893 10.326,1.499 1.518,-0.322 1.518,0.133"
             style="fill:#ffffff;fill-opacity:1;fill-rule:nonzero;stroke:none"
             id="path3224"
             inkscape:connector-curvature="0" /></g><g
           id="g3226"
           transform="translate(297.6787,353.0742)"><path
             d="m 0,0 0,-19.207 c 4.978,0.209 9.862,0.508 14.764,0.795 0.372,-0.422 0.335,-0.764 0.873,-1.033 0.46,-0.231 1.209,-0.346 1.825,0 0.386,0.217 0.533,0.912 0.873,1.033 0.257,0.09 1.221,-0.053 1.826,-0.08 4.206,-0.199 8.985,-0.629 12.858,-0.715 0.081,6.272 0.236,13.307 -0.079,19.445 l -1.033,0 c -0.185,-5.873 -0.026,-12.09 -0.078,-18.095 -4.272,-1.063 -8.484,1.035 -12.224,0.953 -0.376,-0.01 -0.887,-0.059 -1.27,-0.16 -0.524,-0.137 -1.33,-0.985 -1.905,-0.952 -0.532,0.03 -1.128,0.733 -1.587,0.873 -0.508,0.153 -1.078,0.235 -1.588,0.239 -3.712,0.021 -7.819,-2.065 -12.064,-0.873 l 0,18.015 -1.032,0 C 0.06,0.207 -0.003,0.137 0,0 m 17.065,3.572 c -0.003,-6.957 0.051,-12.994 0,-19.842 4.475,1.487 8.649,-1.306 13.652,-0.556 l 0,20.082 C 26.385,2.534 20.519,5.609 17.065,3.572 M 2.302,3.256 l 0,-20.082 c 5.006,-0.752 9.177,2.043 13.651,0.556 -0.039,7.12 0.003,12.293 0,19.842 C 11.977,5.697 7.187,2.41 2.302,3.256 M 16.43,4.604 c 3.767,2.486 10.352,-1.37 15.399,0 l 0,-3.094 c 0.718,-0.129 1.525,-0.168 2.38,-0.16 10e-4,-6.959 0,-14.604 0,-21.827 -3.786,0.125 -7.424,0.457 -11.27,0.635 -1.179,0.055 -2.753,0.389 -3.732,0.158 -0.709,-0.166 -0.942,-0.845 -1.587,-1.031 -0.647,-0.187 -1.412,-0.232 -2.222,0 -0.732,0.211 -0.923,0.885 -1.586,1.031 -1.013,0.227 -2.622,-0.101 -3.811,-0.158 -3.659,-0.172 -7.443,-0.517 -11.191,-0.635 l 0,21.827 c 0.851,-0.057 1.458,0.13 2.302,0.08 0.181,0.904 0.029,2.14 0.079,3.174 5.246,-1.432 10.797,2.474 15.239,0"
             style="fill:#d91920;fill-opacity:1;fill-rule:nonzero;stroke:none"
             id="path3228"
             inkscape:connector-curvature="0" /></g></g></g></g></svg>